<svg id="vector" xmlns="http://www.w3.org/2000/svg" width="108" height="108" viewBox="20 20 68 68"><path fill="#FFFFFF" d="M57.67,46.76C58.93,49.05 60.1,50.41 62.29,52.12L62.31,54L62.29,55.9C62.01,71.31 58.42,83.6 54,84C37.39,83.58 24,70.29 24,54C24,51.84 24.24,49.73 24.68,47.71L24.91,46.76L57.67,46.76ZM83.11,46.83C83.31,47.61 83.48,48.4 83.61,49.21C83.87,50.77 84,52.37 84,54C84,55.63 83.87,57.23 83.61,58.78C83.35,60.34 82.97,61.86 82.47,63.33C81.98,64.8 81.37,66.22 80.66,67.58C79.95,68.94 79.13,70.24 78.22,71.48C77.32,72.71 76.31,73.87 75.23,74.95C74.14,76.03 72.98,77.04 71.74,77.95C70.5,78.86 69.18,79.69 67.81,80.41C66.77,80.96 65.71,81.45 64.61,81.87L63.5,82.28L63,82.44C70.49,78.56 74.35,67.79 74.54,55.01L74.55,53.76C76.94,52.1 77.99,50.4 78.38,47.44L78.44,46.83L83.11,46.83ZM64.45,37.85C67.11,35.58 71.72,38.79 72.61,42.52C73.07,44.45 72.5,47.4 69.06,47.6C63.62,47.29 61.22,40.61 64.45,37.85ZM54,24L54.74,24.03L56.41,24.15C57.88,25.98 59.18,30.52 59.9,33.15C59.34,33.66 58.97,34.07 58.55,34.63L58.23,35.08H31.14L31.11,35.11H30.9C36.39,28.52 44.68,24.23 54,24ZM64.1,25.94C65.37,26.41 66.61,26.96 67.81,27.58C69.18,28.31 70.5,29.13 71.74,30.05C72.98,30.96 74.14,31.96 75.23,33.05C75.88,33.7 76.51,34.39 77.1,35.1L72.68,35.08C70.92,33.62 69.7,32.86 67.84,32.07C66.8,30.69 65.8,28.12 64.63,26.58L64.18,26.06C64.16,26.02 64.13,25.98 64.1,25.94Z" id="path_0"/></svg>
