<svg id="vector" xmlns="http://www.w3.org/2000/svg" width="108" height="108" viewBox="0 0 108 108">
  <circle fill="#c4532c" cx="54" cy="54" r="54"></circle>
  <path fill="#ffffff" d="M 58.168 45.777 C 59.6 48.377 60.929 49.922 63.416 51.865 L 63.439 54 L 63.416 56.158 C 63.099 73.662 59.02 87.622 54 88.076 C 35.133 87.599 19.924 72.503 19.924 54 C 19.924 51.547 20.197 49.15 20.696 46.855 L 20.958 45.777 L 58.168 45.777 Z M 87.065 45.856 C 87.292 46.742 87.485 47.639 87.633 48.559 C 87.928 50.331 88.076 52.148 88.076 54 C 88.076 55.852 87.928 57.669 87.633 59.43 C 87.338 61.201 86.906 62.928 86.338 64.597 C 85.781 66.268 85.088 67.881 84.282 69.425 C 83.475 70.97 82.544 72.447 81.51 73.855 C 80.488 75.252 79.341 76.569 78.114 77.796 C 76.876 79.023 75.559 80.17 74.15 81.204 C 72.742 82.237 71.242 83.181 69.686 83.998 C 68.505 84.623 67.301 85.18 66.052 85.657 L 64.791 86.122 L 64.222 86.304 C 72.731 81.896 77.115 69.664 77.331 55.147 L 77.342 53.727 C 80.057 51.842 81.25 49.911 81.692 46.548 L 81.76 45.856 L 87.065 45.856 Z M 65.87 35.656 C 68.891 33.077 74.127 36.724 75.139 40.961 C 75.661 43.153 75.013 46.503 71.106 46.731 C 64.927 46.378 62.201 38.791 65.87 35.656 Z M 54 19.924 L 54.84 19.958 L 56.738 20.095 C 58.407 22.173 59.884 27.33 60.702 30.317 C 60.065 30.896 59.645 31.363 59.168 31.998 L 58.805 32.51 L 28.034 32.51 L 28 32.544 L 27.762 32.544 C 33.997 25.058 43.414 20.185 54 19.924 Z M 65.473 22.128 C 66.915 22.662 68.324 23.287 69.686 23.99 C 71.242 24.819 72.742 25.751 74.15 26.796 C 75.559 27.83 76.876 28.966 78.114 30.204 C 78.853 30.942 79.569 31.726 80.238 32.533 L 75.218 32.51 C 73.219 30.851 71.833 29.988 69.72 29.091 C 68.539 27.523 67.403 24.604 66.074 22.854 L 65.563 22.264 C 65.541 22.219 65.507 22.173 65.473 22.128 Z" id="path_0"></path>
</svg>
