<svg xmlns="http://www.w3.org/2000/svg" viewBox="0 0 512 512">
	<path d="M508.3,251.4c2.8,0.9,3.7,2.8,3.7,5.6s-0.9,4.6-3.7,5.6l-70.6,42.7c-0.9,0.9-2.8,0.9-3.7,0.9s-2.8,0-3.7-0.9   c-2.8-1.9-3.7-3.7-3.7-6.5v-28.8H237c5.6,8.4,11.2,20.4,18.6,36.2c2.8,5.6,3.7,9.3,5.6,12.1c1.9,2.8,2.8,6.5,5.6,11.2   c2.8,4.6,4.6,8.4,5.6,10.2c1.9,2.8,3.7,4.6,5.6,7.4c1.9,2.8,4.6,4.6,7.4,5.6s4.6,1.9,7.4,1.9h21.4v-21.4c0-1.9,0.9-3.7,1.9-4.6   s2.8-1.9,4.6-1.9h70.6c1.9,0,3.7,0.9,4.6,1.9c0.9,0.9,1.9,2.8,1.9,4.6v72.5c0,1.9-0.9,3.7-1.9,4.6c-0.9,0.9-2.8,1.9-4.6,1.9h-70.6   c-1.9,0-3.7-0.9-4.6-1.9c-0.9-0.9-1.9-2.8-1.9-4.6v-21.4h-21.4c-4.6,0-9.3-0.9-13.9-1.9c-4.6-0.9-8.4-2.8-11.2-5.6   c-3.7-1.9-6.5-4.6-10.2-9.3c-3.7-4.6-6.5-7.4-8.4-10.2c-1.9-2.8-4.6-7.4-7.4-13c-2.8-5.6-4.6-10.2-6.5-13c-0.9-2.8-3.7-7.4-6.5-13   c-3.7-7.4-6.5-13.9-8.4-17.7c-1.9-4.6-4.6-9.3-8.4-14.9c-3.7-5.6-6.5-9.3-10.2-12.1c-3.7-2.8-6.5-3.7-10.2-3.7h-79.9   c-3.7,12.1-10.2,22.3-20.4,30.7c-10.2,8.4-21.4,12.1-34.4,12.1c-15.8,0-28.8-5.6-40-16.7C5.6,284.8,0,271.8,0,256   c0-15.8,5.6-28.8,16.7-40c11.2-11.2,24.2-16.7,40-16.7c13,0,24.2,3.7,34.4,12.1c10.2,8.4,16.7,18.6,20.4,30.7h24.2   c3.7,0,7.4-0.9,10.2-3.7c3.7-2.8,6.5-6.5,10.2-12.1c3.7-5.6,5.6-10.2,8.4-14.9c1.9-4.6,4.6-10.2,8.4-17.7c2.8-6.5,4.6-10.2,6.5-13   c0.9-2.8,3.7-7.4,6.5-13c2.8-5.6,5.6-10.2,7.4-13c1.9-2.8,4.6-6.5,8.4-10.2c3.7-3.7,6.5-7.4,10.2-9.3s7.4-3.7,11.2-5.6   c4.6-1.9,8.4-1.9,13.9-1.9h24.2c2.8-8.4,8.4-14.9,15.8-20.4c7.4-5.6,15.8-7.4,24.2-7.4c12.1,0,22.3,3.7,29.7,12.1   c8.4,8.4,12.1,18.6,12.1,29.7c0,11.2-3.7,22.3-12.1,29.7c-8.4,7.4-18.6,12.1-29.7,12.1c-9.3,0-17.7-2.8-24.2-7.4   c-6.5-4.6-12.1-12.1-15.8-20.4H237c-2.8,0-4.6,0.9-7.4,1.9c-2.8,0.9-4.6,2.8-7.4,5.6c-1.9,2.8-4.6,5.6-5.6,7.4   c-1.9,2.8-3.7,5.6-5.6,10.2c-1.9,4.6-3.7,8.4-5.6,11.2c-1.9,2.8-2.8,6.5-5.6,12.1c-6.5,15.8-13,27.9-18.6,36.2h247.2v-28.8   c0-2.8,0.9-4.6,3.7-6.5s4.6-1.9,7.4,0L508.3,251.4z"/>
</svg>
